<svg width="824" height="824" viewBox="0 0 824 824" fill="none" xmlns="http://www.w3.org/2000/svg">
<path d="M825.666 411.986C825.666 639.152 640.472 824 412.847 824C185.222 824 0 639.18 0 411.986C0 184.791 185.193 0 412.819 0C640.444 0 825.637 184.82 825.637 411.986H825.666ZM63.2625 411.986C63.2625 604.352 220.063 760.837 412.819 760.837C605.574 760.837 762.375 604.352 762.375 411.986C762.375 219.619 605.574 63.1349 412.819 63.1349C220.063 63.1349 63.2625 219.648 63.2625 411.986Z" fill="#63F161"/>
<path d="M658.221 411.986C658.221 547.027 548.132 656.893 412.847 656.893C277.562 656.893 167.444 547.027 167.444 411.986C167.444 276.945 277.533 167.078 412.847 167.078C548.161 167.078 658.221 276.945 658.221 411.986ZM230.707 411.986C230.707 512.198 312.403 593.758 412.847 593.758C513.291 593.758 594.959 512.227 594.959 411.986C594.959 311.744 513.262 230.242 412.847 230.242C312.432 230.242 230.707 311.773 230.707 411.986Z" fill="#63F161"/>
</svg>
